<svg width="600" height="400" viewBox="0 0 600 400" fill="none" xmlns="http://www.w3.org/2000/svg">
  <rect width="600" height="400" rx="10" fill="#F0F4FF"/>
  
  <!-- Background Elements -->
  <circle cx="100" cy="300" r="80" fill="#DBEAFE"/>
  <circle cx="500" cy="100" r="60" fill="#DBEAFE"/>
  <circle cx="300" cy="250" r="150" fill="#EFF6FF"/>
  
  <!-- Person 1 -->
  <g transform="translate(150, 150)">
    <!-- Computer -->
    <rect x="0" y="30" width="120" height="80" rx="5" fill="#2563EB"/>
    <rect x="10" y="40" width="100" height="60" rx="3" fill="#BFDBFE"/>
    <rect x="20" y="50" width="80" height="10" rx="2" fill="#1E40AF"/>
    <rect x="20" y="65" width="40" height="5" rx="2" fill="#1E40AF"/>
    <rect x="20" y="75" width="60" height="5" rx="2" fill="#1E40AF"/>
    <rect x="20" y="85" width="50" height="5" rx="2" fill="#1E40AF"/>
    
    <!-- Person -->
    <circle cx="60" cy="0" r="25" fill="#BFDBFE"/>
    <circle cx="60" cy="0" r="18" fill="#93C5FD"/>
    <path d="M45 -5 C 60 -15, 75 -5, 75 5" stroke="#1E40AF" stroke-width="2" fill="none"/>
    <circle cx="52" cy="-5" r="3" fill="#1E40AF"/>
    <circle cx="68" cy="-5" r="3" fill="#1E40AF"/>
  </g>
  
  <!-- Person 2 -->
  <g transform="translate(350, 180)">
    <!-- Computer -->
    <rect x="0" y="30" width="120" height="80" rx="5" fill="#2563EB"/>
    <rect x="10" y="40" width="100" height="60" rx="3" fill="#BFDBFE"/>
    <rect x="20" y="50" width="80" height="10" rx="2" fill="#1E40AF"/>
    <rect x="20" y="65" width="40" height="5" rx="2" fill="#1E40AF"/>
    <rect x="20" y="75" width="60" height="5" rx="2" fill="#1E40AF"/>
    <rect x="20" y="85" width="50" height="5" rx="2" fill="#1E40AF"/>
    
    <!-- Person -->
    <circle cx="60" cy="0" r="25" fill="#BFDBFE"/>
    <circle cx="60" cy="0" r="18" fill="#93C5FD"/>
    <path d="M45 5 C 60 -5, 75 5, 75 5" stroke="#1E40AF" stroke-width="2" fill="none"/>
    <circle cx="52" cy="-5" r="3" fill="#1E40AF"/>
    <circle cx="68" cy="-5" r="3" fill="#1E40AF"/>
  </g>
  
  <!-- Code Symbols -->
  <text x="100" y="100" fill="#2563EB" font-family="monospace" font-size="20">&lt;/&gt;</text>
  <text x="450" y="320" fill="#2563EB" font-family="monospace" font-size="20">{}</text>
  <text x="200" y="50" fill="#2563EB" font-family="monospace" font-size="16">function()</text>
  <text x="400" y="80" fill="#2563EB" font-family="monospace" font-size="16">class</text>
  
  <!-- Binary Background -->
  <text x="50" y="50" fill="#BFDBFE" font-family="monospace" font-size="10">01001100 01100101 01100001 01110010 01101110</text>
  <text x="350" y="350" fill="#BFDBFE" font-family="monospace" font-size="10">01000010 01110101 01101001 01101100 01100100</text>
</svg>